<svg width="204" height="30" viewBox="0 0 204 30" fill="none" xmlns="http://www.w3.org/2000/svg">
<path d="M8.78866 8.072V10.712H7.42066C6.87666 10.984 6.34866 11.32 5.83666 11.72C5.34066 12.104 4.89266 12.552 4.49266 13.064C4.10866 13.56 3.79666 14.112 3.55666 14.72C3.33266 15.328 3.22066 15.984 3.22066 16.688C3.22066 17.648 3.36466 18.4 3.65266 18.944C3.94066 19.488 4.30066 19.872 4.73266 20.096C5.16466 20.304 5.59666 20.408 6.02866 20.408C6.31666 20.408 6.59666 20.384 6.86866 20.336C7.14066 20.272 7.45266 20.152 7.80466 19.976L9.00466 22.352C8.47666 22.656 7.95666 22.864 7.44466 22.976C6.93266 23.072 6.39666 23.12 5.83666 23.12C4.65266 23.12 3.62066 22.88 2.74066 22.4C1.86066 21.904 1.18066 21.184 0.700656 20.24C0.236656 19.28 0.00465629 18.12 0.00465629 16.76C0.00465629 15.784 0.156656 14.856 0.460656 13.976C0.764656 13.08 1.18066 12.256 1.70866 11.504C2.25266 10.752 2.88466 10.088 3.60466 9.512C4.32466 8.92 5.10066 8.44 5.93266 8.072H8.78866ZM29.3666 8.072V10.712H21.5426V12.152L21.5906 13.136V23H18.4226C17.8306 22.136 17.1106 21.376 16.2626 20.72C15.4306 20.064 14.5026 19.52 13.4786 19.088C12.4546 18.64 11.3426 18.32 10.1426 18.128L8.94259 15.296C10.4146 14.48 12.0226 13.696 13.7666 12.944C15.5266 12.176 17.2546 11.568 18.9506 11.12L18.4946 11.816V10.712H8.31859V8.072H29.3666ZM18.4226 13.424L18.9266 13.952C18.2226 14.16 17.5426 14.384 16.8866 14.624C16.2466 14.864 15.6066 15.128 14.9666 15.416C14.3266 15.688 13.6626 15.992 12.9746 16.328C13.6306 16.456 14.3106 16.68 15.0146 17C15.7346 17.304 16.4306 17.704 17.1026 18.2C17.7906 18.696 18.4066 19.272 18.9506 19.928L18.5186 20.192C18.5026 19.904 18.4786 19.584 18.4466 19.232C18.4306 18.88 18.4226 18.504 18.4226 18.104V13.424ZM28.3586 16.808C28.3586 17.336 28.2466 17.84 28.0226 18.32C27.8146 18.8 27.4466 19.192 26.9186 19.496C26.3906 19.8 25.6546 19.952 24.7106 19.952C24.3746 19.952 24.0626 19.944 23.7746 19.928C23.5026 19.896 23.2466 19.856 23.0066 19.808L23.1026 17.168C23.1826 17.184 23.2786 17.2 23.3906 17.216C23.5186 17.216 23.6786 17.216 23.8706 17.216C24.4466 17.216 24.8226 17.12 24.9986 16.928C25.1746 16.72 25.2626 16.472 25.2626 16.184C25.2626 15.64 24.9186 15.16 24.2306 14.744C23.5426 14.328 22.5346 14.008 21.2066 13.784V11.168C22.5186 11.344 23.7106 11.68 24.7826 12.176C25.8706 12.656 26.7346 13.288 27.3746 14.072C28.0306 14.84 28.3586 15.752 28.3586 16.808ZM36.6727 8.072V10.712H34.3687V23H31.2007V12.344C31.0087 11.848 30.7367 11.456 30.3847 11.168C30.0327 10.864 29.5767 10.712 29.0167 10.712H28.8967V8.072H29.3767C29.7447 8.072 30.0887 8.168 30.4087 8.36C30.7287 8.552 31.0247 8.96 31.2967 9.584C31.2807 9.504 31.2567 9.32 31.2247 9.032C31.2087 8.744 31.2007 8.496 31.2007 8.288V6.488H33.7927L34.3447 8.072H36.6727ZM46.2418 8.072V10.712H44.8738C44.3298 10.984 43.8018 11.32 43.2898 11.72C42.7938 12.104 42.3458 12.552 41.9458 13.064C41.5618 13.56 41.2498 14.112 41.0098 14.72C40.7858 15.328 40.6738 15.984 40.6738 16.688C40.6738 17.648 40.8178 18.4 41.1058 18.944C41.3938 19.488 41.7538 19.872 42.1858 20.096C42.6178 20.304 43.0498 20.408 43.4818 20.408C43.7698 20.408 44.0498 20.384 44.3218 20.336C44.5938 20.272 44.9058 20.152 45.2578 19.976L46.4578 22.352C45.9298 22.656 45.4098 22.864 44.8978 22.976C44.3858 23.072 43.8498 23.12 43.2898 23.12C42.1058 23.12 41.0738 22.88 40.1938 22.4C39.3138 21.904 38.6338 21.184 38.1538 20.24C37.6898 19.28 37.4578 18.12 37.4578 16.76C37.4578 15.656 37.6578 14.632 38.0578 13.688C38.4578 12.744 39.0178 11.92 39.7378 11.216C40.4738 10.496 41.3378 9.952 42.3298 9.584L40.7938 10.616C40.5378 10.648 40.2418 10.672 39.9058 10.688C39.5858 10.704 39.1698 10.712 38.6578 10.712H36.1858V8.072H46.2418ZM52.3237 11.36C53.7957 11.36 54.9637 11.584 55.8277 12.032C56.7077 12.464 57.3397 13.016 57.7237 13.688C58.1077 14.36 58.2997 15.048 58.2997 15.752C58.2997 17.064 57.8837 18.072 57.0517 18.776C56.2357 19.464 55.0757 19.928 53.5717 20.168L53.0197 19.184C53.8197 19.392 54.6117 19.648 55.3957 19.952C56.1797 20.256 56.9557 20.616 57.7237 21.032C58.5077 21.448 59.2757 21.92 60.0277 22.448L58.3477 24.68C57.5957 24.136 56.7957 23.632 55.9477 23.168C55.1157 22.704 54.2277 22.288 53.2837 21.92C52.3557 21.536 51.3797 21.2 50.3557 20.912C49.3317 20.624 48.2517 20.392 47.1157 20.216L47.6437 17.696C48.2037 17.84 48.7477 17.952 49.2757 18.032C49.8197 18.112 50.3637 18.152 50.9077 18.152C51.9317 18.152 52.7477 18.056 53.3557 17.864C53.9637 17.656 54.4037 17.376 54.6757 17.024C54.9637 16.672 55.1077 16.256 55.1077 15.776C55.1077 15.2 54.8837 14.736 54.4357 14.384C54.0037 14.032 53.3877 13.856 52.5877 13.856C52.1237 13.856 51.7477 13.896 51.4597 13.976C51.1877 14.056 50.9877 14.184 50.8597 14.36C50.7477 14.52 50.6917 14.72 50.6917 14.96C50.6917 15.04 50.7077 15.136 50.7397 15.248C50.7717 15.36 50.8037 15.456 50.8357 15.536L47.8597 15.968C47.7637 15.728 47.6837 15.456 47.6197 15.152C47.5557 14.832 47.5237 14.536 47.5237 14.264C47.5237 13.688 47.7157 13.184 48.0997 12.752C48.4837 12.304 49.0357 11.96 49.7557 11.72C50.4757 11.48 51.3317 11.36 52.3237 11.36ZM49.4917 12.728C49.4117 12.2 49.1717 11.744 48.7717 11.36C48.3717 10.976 47.7957 10.696 47.0437 10.52L48.8677 9.464L49.9717 9.728C50.8677 10.096 51.5157 10.504 51.9157 10.952C52.3157 11.4 52.5477 11.968 52.6117 12.656L49.4917 12.728ZM60.0037 8.072V10.712H45.7717V8.072H60.0037ZM78.6335 8.072V10.712H76.3295V23H73.1615V15.44L73.8095 16.808C73.5535 16.344 73.2495 15.944 72.8975 15.608C72.5455 15.272 72.1455 15.104 71.6975 15.104C71.5375 15.104 71.3535 15.144 71.1455 15.224C70.9535 15.304 70.7855 15.456 70.6415 15.68C70.5135 15.904 70.4495 16.232 70.4495 16.664C70.4495 16.808 70.4575 16.944 70.4735 17.072C70.4895 17.184 70.5055 17.304 70.5215 17.432L67.8095 17.6C67.7295 17.072 67.5695 16.616 67.3295 16.232C67.1055 15.832 66.8175 15.528 66.4655 15.32C66.1135 15.112 65.6895 15.008 65.1935 15.008C64.9055 15.008 64.6495 15.064 64.4255 15.176C64.2015 15.272 64.0255 15.416 63.8975 15.608C63.7855 15.8 63.7295 16.024 63.7295 16.28C63.7295 16.856 63.9535 17.304 64.4015 17.624C64.8655 17.944 65.4255 18.208 66.0815 18.416L65.1695 21.104C64.2095 20.832 63.3775 20.472 62.6735 20.024C61.9695 19.56 61.4255 19.008 61.0415 18.368C60.6575 17.728 60.4655 16.992 60.4655 16.16C60.4655 15.36 60.6575 14.672 61.0415 14.096C61.4415 13.52 61.9695 13.08 62.6255 12.776C63.2815 12.456 64.0015 12.296 64.7855 12.296C65.7295 12.296 66.5215 12.456 67.1615 12.776C67.8015 13.08 68.4655 13.584 69.1535 14.288L68.7215 14.12C68.8975 13.56 69.2095 13.136 69.6575 12.848C70.1055 12.56 70.5775 12.416 71.0735 12.416C71.6335 12.416 72.1295 12.528 72.5615 12.752C73.0095 12.976 73.4255 13.28 73.8095 13.664L73.2815 14.048C73.2495 13.696 73.2175 13.344 73.1855 12.992C73.1695 12.64 73.1615 12.288 73.1615 11.936V10.712H59.5295V8.072H78.6335ZM85.9383 10.712H83.6343V23H80.4663V10.712H78.1623V8.072H80.4663C80.3063 7.24 80.0023 6.528 79.5543 5.936C79.1063 5.344 78.5143 4.864 77.7783 4.496C77.0423 4.112 76.1703 3.832 75.1623 3.656C74.1383 3.48 72.9783 3.392 71.6823 3.392C70.8983 3.392 70.2423 3.432 69.7143 3.512C69.1863 3.576 68.7943 3.68 68.5383 3.824C68.2823 3.952 68.1543 4.104 68.1543 4.28C68.1543 4.44 68.2423 4.552 68.4183 4.616C68.5783 4.664 68.8983 4.688 69.3783 4.688H71.8023C72.7303 4.688 73.4743 4.76 74.0343 4.904C74.5783 5.048 75.0263 5.28 75.3783 5.6C75.6983 5.888 75.9303 6.24 76.0743 6.656C76.2183 7.072 76.2903 7.6 76.2903 8.24H73.2663C73.2663 7.968 73.2263 7.736 73.1463 7.544C73.0663 7.352 72.9463 7.208 72.7863 7.112C72.6423 7.032 72.4823 6.976 72.3063 6.944C72.1303 6.896 71.8983 6.872 71.6103 6.872H69.8583C68.8983 6.872 68.1463 6.824 67.6023 6.728C67.0583 6.616 66.6183 6.464 66.2823 6.272C65.8823 6.048 65.6023 5.768 65.4423 5.432C65.2823 5.08 65.2023 4.712 65.2023 4.328C65.2023 3.336 65.7783 2.536 66.9303 1.928C68.0663 1.304 69.8103 0.991999 72.1623 0.991999C75.6503 0.991999 78.3783 1.568 80.3463 2.72C82.3143 3.856 83.4263 5.64 83.6823 8.072H85.9383V10.712ZM112.476 8.072V10.712H104.652V12.152L104.7 13.136V23H101.532C100.94 22.136 100.22 21.376 99.372 20.72C98.54 20.064 97.612 19.52 96.588 19.088C95.564 18.64 94.452 18.32 93.252 18.128L92.052 15.296C93.524 14.48 95.132 13.696 96.876 12.944C98.636 12.176 100.364 11.568 102.06 11.12L101.604 11.816V10.712H91.428V8.072H112.476ZM101.532 13.424L102.036 13.952C101.332 14.16 100.652 14.384 99.996 14.624C99.356 14.864 98.716 15.128 98.076 15.416C97.436 15.688 96.772 15.992 96.084 16.328C96.74 16.456 97.42 16.68 98.124 17C98.844 17.304 99.54 17.704 100.212 18.2C100.9 18.696 101.516 19.272 102.06 19.928L101.628 20.192C101.612 19.904 101.588 19.584 101.556 19.232C101.54 18.88 101.532 18.504 101.532 18.104V13.424ZM111.468 16.808C111.468 17.336 111.356 17.84 111.132 18.32C110.924 18.8 110.556 19.192 110.028 19.496C109.5 19.8 108.764 19.952 107.82 19.952C107.484 19.952 107.172 19.944 106.884 19.928C106.612 19.896 106.356 19.856 106.116 19.808L106.212 17.168C106.292 17.184 106.388 17.2 106.5 17.216C106.628 17.216 106.788 17.216 106.98 17.216C107.556 17.216 107.932 17.12 108.108 16.928C108.284 16.72 108.372 16.472 108.372 16.184C108.372 15.64 108.028 15.16 107.34 14.744C106.652 14.328 105.644 14.008 104.316 13.784V11.168C105.628 11.344 106.82 11.68 107.892 12.176C108.98 12.656 109.844 13.288 110.484 14.072C111.14 14.84 111.468 15.752 111.468 16.808ZM99.4177 29.384C98.8737 29.384 98.3137 29.28 97.7377 29.072C97.1457 28.88 96.6497 28.568 96.2497 28.136C95.8497 27.704 95.6497 27.128 95.6497 26.408C95.6497 25.528 95.9857 24.824 96.6577 24.296C97.3137 23.768 98.2737 23.504 99.5377 23.504C100.69 23.504 101.762 23.648 102.754 23.936C103.746 24.24 104.738 24.688 105.73 25.28C106.722 25.872 107.794 26.616 108.946 27.512L107.242 29.504C106.314 28.656 105.426 27.944 104.578 27.368C103.73 26.792 102.922 26.36 102.154 26.072C101.386 25.784 100.658 25.64 99.9697 25.64C99.4737 25.64 99.1217 25.72 98.9137 25.88C98.6897 26.04 98.5777 26.248 98.5777 26.504C98.5777 26.792 98.6737 27 98.8657 27.128C99.0577 27.256 99.3217 27.32 99.6577 27.32C100.058 27.32 100.386 27.224 100.642 27.032C100.882 26.84 101.066 26.592 101.194 26.288C101.322 26 101.41 25.688 101.458 25.352C101.506 25.032 101.53 24.728 101.53 24.44V22.616H104.698V23.792C104.698 24.304 104.642 24.88 104.53 25.52C104.402 26.16 104.162 26.768 103.81 27.344C103.442 27.936 102.906 28.424 102.202 28.808C101.498 29.192 100.57 29.384 99.4177 29.384ZM133.246 8.072V10.712H117.094V15.704L116.134 15.056C116.566 14.672 117.118 14.264 117.79 13.832C118.478 13.384 119.238 12.96 120.07 12.56C120.902 12.144 121.758 11.8 122.638 11.528L124.75 13.232C124.51 13.728 124.326 14.208 124.198 14.672C124.086 15.136 124.03 15.608 124.03 16.088C124.03 16.424 124.046 16.736 124.078 17.024C124.11 17.312 124.158 17.608 124.222 17.912L123.214 17.504C123.646 17.12 124.198 16.712 124.87 16.28C125.558 15.832 126.318 15.408 127.15 15.008C127.982 14.608 128.838 14.264 129.718 13.976L131.83 15.68C131.574 16.192 131.39 16.744 131.278 17.336C131.166 17.912 131.11 18.504 131.11 19.112C131.11 19.736 131.158 20.312 131.254 20.84C131.366 21.368 131.51 21.96 131.686 22.616L128.59 23.264C128.382 22.56 128.214 21.904 128.086 21.296C127.974 20.688 127.918 20.04 127.918 19.352C127.918 18.52 128.014 17.792 128.206 17.168C128.398 16.544 128.63 15.984 128.902 15.488L130.222 16.616C129.454 16.856 128.67 17.192 127.87 17.624C127.086 18.056 126.326 18.528 125.59 19.04C124.87 19.536 124.214 20.024 123.622 20.504L121.006 18.776C120.942 18.504 120.894 18.168 120.862 17.768C120.846 17.368 120.838 17.008 120.838 16.688C120.838 16.032 120.926 15.4 121.102 14.792C121.294 14.168 121.534 13.592 121.822 13.064L123.142 14.168C122.39 14.424 121.614 14.768 120.814 15.2C120.03 15.616 119.27 16.08 118.534 16.592C117.798 17.088 117.134 17.576 116.542 18.056L113.926 16.328V10.712H112.006V8.072H133.246ZM126.254 29.384C125.71 29.384 125.15 29.28 124.574 29.072C123.982 28.88 123.486 28.568 123.086 28.136C122.686 27.704 122.486 27.128 122.486 26.408C122.486 25.528 122.822 24.824 123.494 24.296C124.15 23.768 125.11 23.504 126.374 23.504C127.526 23.504 128.598 23.648 129.59 23.936C130.582 24.24 131.574 24.688 132.566 25.28C133.558 25.872 134.63 26.616 135.782 27.512L134.078 29.504C133.15 28.656 132.262 27.944 131.414 27.368C130.566 26.792 129.758 26.36 128.99 26.072C128.222 25.784 127.494 25.64 126.806 25.64C126.31 25.64 125.958 25.72 125.75 25.88C125.526 26.04 125.414 26.248 125.414 26.504C125.414 26.792 125.51 27 125.702 27.128C125.894 27.256 126.158 27.32 126.494 27.32C126.894 27.32 127.222 27.224 127.478 27.032C127.718 26.84 127.902 26.592 128.03 26.288C128.158 26 128.246 25.688 128.294 25.352C128.342 25.032 128.366 24.728 128.366 24.44V22.616H131.534V23.792C131.534 24.304 131.478 24.88 131.366 25.52C131.238 26.16 130.998 26.768 130.646 27.344C130.278 27.936 129.742 28.424 129.038 28.808C128.334 29.192 127.406 29.384 126.254 29.384ZM150.244 8.072V10.712H147.94V23H144.772V15.416L145.372 16.448C145.052 16.048 144.756 15.744 144.484 15.536C144.228 15.312 143.98 15.2 143.74 15.2C143.548 15.2 143.372 15.256 143.212 15.368C143.052 15.48 142.86 15.704 142.636 16.04C142.412 16.376 142.084 16.888 141.652 17.576C141.204 18.28 140.78 18.856 140.38 19.304C139.98 19.736 139.564 20.048 139.132 20.24C138.716 20.432 138.228 20.528 137.668 20.528C137.188 20.528 136.724 20.448 136.276 20.288C135.828 20.128 135.388 19.848 134.956 19.448C134.54 19.032 134.116 18.448 133.684 17.696L135.892 16.328C136.212 16.84 136.484 17.208 136.708 17.432C136.932 17.64 137.196 17.744 137.5 17.744C137.708 17.744 137.9 17.696 138.076 17.6C138.268 17.504 138.484 17.288 138.724 16.952C138.98 16.6 139.3 16.056 139.684 15.32L140.284 14.696C140.716 13.896 141.124 13.336 141.508 13.016C141.892 12.696 142.364 12.536 142.924 12.536C143.356 12.536 143.74 12.64 144.076 12.848C144.428 13.04 144.82 13.344 145.252 13.76L144.868 13.856C144.852 13.552 144.828 13.24 144.796 12.92C144.78 12.584 144.772 12.256 144.772 11.936V10.712H132.772V8.072H150.244ZM138.82 17.096C138.676 16.104 138.524 15.32 138.364 14.744C138.204 14.152 137.94 13.696 137.572 13.376C137.188 13.04 136.676 12.792 136.036 12.632C135.396 12.456 134.588 12.312 133.612 12.2L134.5 9.44L136.204 10.304C137.116 10.464 137.852 10.656 138.412 10.88C138.972 11.104 139.412 11.392 139.732 11.744C140.052 12.08 140.284 12.512 140.428 13.04C140.572 13.552 140.676 14.184 140.74 14.936L138.82 17.096ZM171.7 8.072V10.712H169.396V23H166.228V19.88L166.636 21.152C166.044 20.336 165.476 19.64 164.932 19.064C164.388 18.472 163.844 18.024 163.3 17.72C162.756 17.4 162.18 17.24 161.572 17.24C161.204 17.24 160.884 17.336 160.612 17.528C160.34 17.72 160.204 18.008 160.204 18.392C160.204 18.808 160.356 19.136 160.66 19.376C160.98 19.6 161.412 19.808 161.956 20L161.044 22.76C160.084 22.488 159.3 22.12 158.692 21.656C158.1 21.176 157.66 20.648 157.372 20.072C157.084 19.496 156.94 18.904 156.94 18.296C156.94 17.448 157.14 16.752 157.54 16.208C157.94 15.664 158.452 15.264 159.076 15.008C159.716 14.752 160.372 14.624 161.044 14.624C161.828 14.624 162.548 14.728 163.204 14.936C163.876 15.144 164.5 15.472 165.076 15.92C165.652 16.352 166.212 16.92 166.756 17.624L166.276 17.984C166.26 17.6 166.244 17.216 166.228 16.832C166.228 16.432 166.228 16.04 166.228 15.656V10.712H155.74V8.072H171.7ZM163.684 15.296C163.684 15.376 163.676 15.496 163.66 15.656C163.66 15.8 163.644 15.944 163.612 16.088L160.516 15.296C160.484 14.544 160.348 13.952 160.108 13.52C159.868 13.088 159.468 12.76 158.908 12.536C158.348 12.312 157.548 12.152 156.508 12.056L157.132 9.632L158.476 10.016C159.436 10.128 160.244 10.32 160.9 10.592C161.572 10.864 162.108 11.216 162.508 11.648C162.924 12.064 163.22 12.576 163.396 13.184C163.588 13.792 163.684 14.496 163.684 15.296ZM164.105 29.384C163.561 29.384 163.001 29.28 162.425 29.072C161.833 28.88 161.337 28.568 160.937 28.136C160.537 27.704 160.337 27.128 160.337 26.408C160.337 25.528 160.673 24.824 161.345 24.296C162.001 23.768 162.961 23.504 164.225 23.504C165.377 23.504 166.449 23.648 167.441 23.936C168.433 24.24 169.425 24.688 170.417 25.28C171.409 25.872 172.481 26.616 173.633 27.512L171.929 29.504C171.001 28.656 170.113 27.944 169.265 27.368C168.417 26.792 167.609 26.36 166.841 26.072C166.073 25.784 165.345 25.64 164.657 25.64C164.161 25.64 163.809 25.72 163.601 25.88C163.377 26.04 163.265 26.248 163.265 26.504C163.265 26.792 163.361 27 163.553 27.128C163.745 27.256 164.009 27.32 164.345 27.32C164.745 27.32 165.073 27.224 165.329 27.032C165.569 26.84 165.753 26.592 165.881 26.288C166.009 26 166.097 25.688 166.145 25.352C166.193 25.032 166.217 24.728 166.217 24.44V22.616H169.385V23.792C169.385 24.304 169.329 24.88 169.217 25.52C169.089 26.16 168.849 26.768 168.497 27.344C168.129 27.936 167.593 28.424 166.889 28.808C166.185 29.192 165.257 29.384 164.105 29.384ZM178.985 8.072V10.712H176.681V23H173.513V10.712H171.209V8.072H173.537C173.281 7.768 173.001 7.424 172.697 7.04C172.409 6.64 172.153 6.288 171.929 5.984C172.841 4.736 173.737 3.752 174.617 3.032C175.513 2.296 176.449 1.776 177.425 1.472C178.417 1.152 179.505 0.991999 180.689 0.991999C181.601 0.991999 182.481 1.064 183.329 1.208C184.177 1.336 185.057 1.552 185.969 1.856C186.881 2.16 187.873 2.568 188.945 3.08C190.017 3.576 191.225 4.192 192.569 4.928L191.081 7.136C189.881 6.512 188.825 5.976 187.913 5.528C187.001 5.08 186.161 4.72 185.393 4.448C184.641 4.16 183.913 3.952 183.209 3.824C182.521 3.696 181.793 3.632 181.025 3.632C180.145 3.632 179.353 3.776 178.649 4.064C177.961 4.352 177.353 4.72 176.825 5.168C176.313 5.6 175.865 6.048 175.481 6.512C175.625 6.768 175.785 7.04 175.961 7.328C176.153 7.6 176.353 7.848 176.561 8.072H178.985ZM191.938 11C193.266 11 194.266 11.272 194.938 11.816C195.626 12.36 195.97 13.104 195.97 14.048C195.97 14.72 195.77 15.336 195.37 15.896C194.986 16.44 194.45 16.92 193.762 17.336C193.09 17.752 192.306 18.112 191.41 18.416L190.33 15.992C191.226 15.72 191.874 15.456 192.274 15.2C192.69 14.928 192.898 14.592 192.898 14.192C192.898 13.968 192.81 13.792 192.634 13.664C192.458 13.536 192.17 13.472 191.77 13.472C191.338 13.472 190.922 13.528 190.522 13.64C190.122 13.752 189.762 13.896 189.442 14.072C189.138 14.232 188.898 14.4 188.722 14.576C188.546 14.752 188.458 14.912 188.458 15.056C188.458 15.2 188.514 15.328 188.626 15.44C188.738 15.536 189.002 15.6 189.418 15.632L188.746 18.32C187.578 18.192 186.714 17.856 186.154 17.312C185.594 16.768 185.314 16.128 185.314 15.392C185.314 14.736 185.506 14.136 185.89 13.592C186.29 13.048 186.81 12.584 187.45 12.2C188.106 11.816 188.826 11.52 189.61 11.312C190.394 11.104 191.17 11 191.938 11ZM196.21 18.992C196.21 20.208 195.666 21.184 194.578 21.92C193.49 22.64 191.986 23 190.066 23C188.85 23 187.698 22.856 186.61 22.568C185.522 22.264 184.514 21.76 183.586 21.056C182.658 20.352 181.818 19.392 181.066 18.176C180.33 16.96 179.682 15.44 179.122 13.616L182.098 12.8C182.642 14.64 183.282 16.112 184.018 17.216C184.77 18.304 185.626 19.088 186.586 19.568C187.562 20.048 188.666 20.288 189.898 20.288C190.794 20.288 191.546 20.152 192.154 19.88C192.762 19.608 193.066 19.2 193.066 18.656C193.066 18.24 192.874 17.896 192.49 17.624C192.106 17.352 191.642 17.144 191.098 17L193.858 15.752C194.546 16.12 195.106 16.576 195.538 17.12C195.986 17.664 196.21 18.288 196.21 18.992ZM198.298 12.056C199.53 12.056 200.45 12.376 201.058 13.016C201.666 13.64 201.97 14.448 201.97 15.44C201.97 16.048 201.826 16.632 201.538 17.192C201.25 17.752 200.802 18.256 200.194 18.704C199.586 19.152 198.802 19.504 197.842 19.76L197.05 17.24C197.738 17.08 198.226 16.856 198.514 16.568C198.802 16.264 198.946 15.952 198.946 15.632C198.946 15.264 198.834 15 198.61 14.84C198.402 14.68 198.114 14.6 197.746 14.6C197.394 14.6 196.954 14.744 196.426 15.032C195.914 15.304 195.418 15.76 194.938 16.4L193.498 15.8C194.01 14.856 194.522 14.112 195.034 13.568C195.562 13.024 196.09 12.64 196.618 12.416C197.162 12.176 197.722 12.056 198.298 12.056ZM203.002 8.072V10.712H178.498V8.072H203.002Z" fill="#F48C06"/>
</svg>
